<svg width="24" height="24" viewBox="0 0 24 24" fill="none" xmlns="http://www.w3.org/2000/svg">
<g opacity="0.4">
<path fill-rule="evenodd" clip-rule="evenodd" d="M6.25 10C6.25 9.58579 6.58579 9.25 7 9.25H21C21.4142 9.25 21.75 9.58579 21.75 10V18C21.75 20.0711 20.0711 21.75 18 21.75H10C7.92894 21.75 6.25 20.0711 6.25 18V10ZM7.75 10.75V18C7.75 19.2426 8.75736 20.25 10 20.25H18C19.2426 20.25 20.25 19.2426 20.25 18V10.75H7.75Z" fill="#1C1B1F"/>
<path fill-rule="evenodd" clip-rule="evenodd" d="M1.25 10C1.25 9.58579 1.58579 9.25 2 9.25H22C22.4142 9.25 22.75 9.58579 22.75 10C22.75 10.4142 22.4142 10.75 22 10.75H2C1.58579 10.75 1.25 10.4142 1.25 10Z" fill="#1C1B1F"/>
<path fill-rule="evenodd" clip-rule="evenodd" d="M9 3.25C9.41421 3.25 9.75 3.58579 9.75 4V6C9.75 6.41421 9.41421 6.75 9 6.75C8.58579 6.75 8.25 6.41421 8.25 6V4C8.25 3.58579 8.58579 3.25 9 3.25Z" fill="#1C1B1F"/>
<path fill-rule="evenodd" clip-rule="evenodd" d="M14 2.25C14.4142 2.25 14.75 2.58579 14.75 3V6C14.75 6.41421 14.4142 6.75 14 6.75C13.5858 6.75 13.25 6.41421 13.25 6V3C13.25 2.58579 13.5858 2.25 14 2.25Z" fill="#1C1B1F"/>
<path fill-rule="evenodd" clip-rule="evenodd" d="M19 3.25C19.4142 3.25 19.75 3.58579 19.75 4V6C19.75 6.41421 19.4142 6.75 19 6.75C18.5858 6.75 18.25 6.41421 18.25 6V4C18.25 3.58579 18.5858 3.25 19 3.25Z" fill="#1C1B1F"/>
</g>
</svg>
