<svg width="24" height="24" viewBox="0 0 24 24" fill="none" xmlns="http://www.w3.org/2000/svg">
<g opacity="0.4">
<path fill-rule="evenodd" clip-rule="evenodd" d="M9.24997 3C9.24997 2.58579 9.58576 2.25 9.99997 2.25H14C14.4142 2.25 14.75 2.58579 14.75 3V7.75H18C18.3033 7.75 18.5768 7.93274 18.6929 8.21299C18.809 8.49325 18.7448 8.81584 18.5303 9.03033L12.5303 15.0303C12.3896 15.171 12.1989 15.25 12 15.25C11.8011 15.25 11.6103 15.171 11.4696 15.0303L5.46969 9.03033C5.25519 8.81583 5.19103 8.49325 5.30711 8.21299C5.4232 7.93274 5.69668 7.75 6.00002 7.75H9.24997V3ZM10.75 3.75V8.5C10.75 8.91422 10.4142 9.25 9.99997 9.25H7.81067L12 13.4393L16.1893 9.25H14C13.5858 9.25 13.25 8.91422 13.25 8.5V3.75H10.75Z" fill="#1C1B1F"/>
<path fill-rule="evenodd" clip-rule="evenodd" d="M2.25 18.5C2.25 18.0858 2.58579 17.75 3 17.75H21C21.4142 17.75 21.75 18.0858 21.75 18.5C21.75 18.9142 21.4142 19.25 21 19.25H3C2.58579 19.25 2.25 18.9142 2.25 18.5Z" fill="#1C1B1F"/>
<path fill-rule="evenodd" clip-rule="evenodd" d="M6.25 22C6.25 21.5858 6.58579 21.25 7 21.25H17C17.4142 21.25 17.75 21.5858 17.75 22C17.75 22.4142 17.4142 22.75 17 22.75H7C6.58579 22.75 6.25 22.4142 6.25 22Z" fill="#1C1B1F"/>
</g>
</svg>
