<svg width="24" height="24" viewBox="0 0 24 24" fill="none" xmlns="http://www.w3.org/2000/svg">
<g opacity="0.4">
<path fill-rule="evenodd" clip-rule="evenodd" d="M2.14496 7.69972C3.80312 3.9046 7.59077 1.25 12.0001 1.25C16.4095 1.25 20.1971 3.90459 21.8553 7.69972C22.0211 8.07929 21.8479 8.52143 21.4683 8.68727C21.0887 8.8531 20.6466 8.67984 20.4808 8.30028C19.0527 5.03179 15.7921 2.75 12.0001 2.75C8.2082 2.75 4.94755 5.03178 3.51949 8.30028C3.35365 8.67984 2.91151 8.8531 2.53194 8.68726C2.15238 8.52143 1.97912 8.07929 2.14496 7.69972Z" fill="#1C1B1F"/>
<path fill-rule="evenodd" clip-rule="evenodd" d="M11.475 6.46442C11.7666 6.17852 12.2334 6.17852 12.525 6.46442C14.5143 8.41457 15.75 11.1344 15.75 14.1414C15.75 14.41 15.7401 14.6765 15.7207 14.9404C15.7074 15.1214 15.6289 15.2914 15.4998 15.419C13.8012 17.0968 12.75 19.4249 12.75 22C12.75 22.4142 12.4142 22.75 12 22.75C11.5858 22.75 11.25 22.4142 11.25 22C11.25 19.4249 10.1988 17.0968 8.50019 15.419C8.37106 15.2914 8.29257 15.1214 8.27927 14.9404C8.25988 14.6765 8.25 14.41 8.25 14.1414C8.25 11.1344 9.48565 8.41457 11.475 6.46442ZM12 18.0477C12.5174 16.7397 13.2839 15.5574 14.2407 14.5598C14.2469 14.4212 14.25 14.2817 14.25 14.1414C14.25 11.8294 13.4026 9.71643 12 8.09447C10.5974 9.71643 9.75 11.8294 9.75 14.1414C9.75 14.2817 9.75312 14.4212 9.75928 14.5598C10.7161 15.5574 11.4826 16.7397 12 18.0477Z" fill="#1C1B1F"/>
<path fill-rule="evenodd" clip-rule="evenodd" d="M1.25 12C1.25 11.5858 1.58579 11.25 2 11.25C4.9444 11.25 7.6136 12.4347 9.55432 14.3518C11.5265 16.2999 12.75 19.0078 12.75 22C12.75 22.4142 12.4142 22.75 12 22.75C6.06294 22.75 1.25 17.9371 1.25 12ZM2.78264 12.7826C3.15833 17.267 6.73303 20.8417 11.2174 21.2174C11.028 18.9551 10.0249 16.925 8.50019 15.419C7.00269 13.9397 5.00471 12.9686 2.78264 12.7826Z" fill="#1C1B1F"/>
<path fill-rule="evenodd" clip-rule="evenodd" d="M21.2174 12.7826C18.9953 12.9686 16.9973 13.9397 15.4998 15.419C13.9751 16.925 12.972 18.9551 12.7826 21.2174C17.267 20.8417 20.8417 17.267 21.2174 12.7826ZM14.4457 14.3518C16.3864 12.4347 19.0556 11.25 22 11.25C22.4142 11.25 22.75 11.5858 22.75 12C22.75 17.9371 17.9371 22.75 12 22.75C11.5858 22.75 11.25 22.4142 11.25 22C11.25 19.0078 12.4735 16.2999 14.4457 14.3518Z" fill="#1C1B1F"/>
</g>
</svg>
